<svg id="Layer_1" data-name="Layer 1" xmlns="http://www.w3.org/2000/svg" viewBox="0 0 500 500"><defs><style>.cls-1{fill:#1d1d1b;}.cls-2{fill:none;stroke:#000;stroke-linecap:square;stroke-miterlimit:10;stroke-width:24px;}</style></defs><path d="M59,208.42q0-22.75,7.89-40.77A94.59,94.59,0,0,1,87.7,137.12,90.35,90.35,0,0,1,117.38,118a92.48,92.48,0,0,1,34.38-6.64q19.53,0,34.94,6.26a73,73,0,0,1,26.11,17.64,76.48,76.48,0,0,1,16.34,27.31,105,105,0,0,1,5.64,35.27,107.61,107.61,0,0,1-1.13,17.06H90.9q1.88,30,20.85,47.41t49,17.45a91,91,0,0,0,29.49-4.55,127.27,127.27,0,0,0,26.11-12.52l10.89,20.48a158.71,158.71,0,0,1-30.81,15.17q-17.28,6.45-39.44,6.45a108.55,108.55,0,0,1-38.13-6.64,93.2,93.2,0,0,1-31.19-19,87.94,87.94,0,0,1-21-30.15Q59,231.18,59,208.42Zm147.27-14q0-28.44-14.27-43.42t-39.83-15a59.94,59.94,0,0,0-40.19,15.36,66.16,66.16,0,0,0-21.42,43Z"/><path class="cls-1" d="M265.21,203.58q0-22.76,7.89-40.77A94.59,94.59,0,0,1,294,132.28a90.16,90.16,0,0,1,29.68-19.15A92.45,92.45,0,0,1,358,106.49q19.53,0,34.94,6.26a73.2,73.2,0,0,1,26.11,17.63,76.71,76.71,0,0,1,16.34,27.31A105.09,105.09,0,0,1,441,193,107.66,107.66,0,0,1,439.91,210H297.15Q299,240,318,257.44t49,17.44a90.79,90.79,0,0,0,29.5-4.55,127.23,127.23,0,0,0,26.11-12.51l10.89,20.48a159.57,159.57,0,0,1-30.81,15.17q-17.28,6.43-39.44,6.44a108.55,108.55,0,0,1-38.13-6.63,93.23,93.23,0,0,1-31.19-19,87.77,87.77,0,0,1-21-30.15Q265.21,226.34,265.21,203.58Zm147.27-14q0-28.44-14.27-43.43t-39.83-15a60,60,0,0,0-40.2,15.36,66.27,66.27,0,0,0-21.41,43.05Z"/><path class="cls-1" d="M174.29,190q-9,0-14.68-5.3t-5.72-14.36q0-9,5.72-14.51t14.68-5.47a20.53,20.53,0,0,1,14.53,5.47q5.88,5.46,5.88,14.51t-5.88,14.36A20.85,20.85,0,0,1,174.29,190Z"/><path class="cls-1" d="M382.2,185.13q-9,0-14.69-5.31t-5.71-14.36q0-9,5.71-14.51t14.69-5.46A20.54,20.54,0,0,1,396.73,151q5.86,5.46,5.88,14.51t-5.88,14.36A20.88,20.88,0,0,1,382.2,185.13Z"/><path class="cls-2" d="M92.81,344c25.52,18.15,172.27,100,313.81,2.68"/></svg>