<svg id="Layer_1" data-name="Layer 1" xmlns="http://www.w3.org/2000/svg" viewBox="0 0 693 115"><defs><style>.cls-1{fill:none;stroke:#000;stroke-linecap:square;stroke-miterlimit:10;stroke-width:5px;}</style></defs><path d="M121.8,80.48V93.35h-6.38V39.14h5.29l.54,4.87h.24a23.53,23.53,0,0,1,6.09-4.16,16.06,16.06,0,0,1,7-1.65,15.51,15.51,0,0,1,6.72,1.38,13.34,13.34,0,0,1,4.9,3.92,17.84,17.84,0,0,1,3,6.12,29.67,29.67,0,0,1,1,8,25,25,0,0,1-1.4,8.66A20,20,0,0,1,145,72.8a15.85,15.85,0,0,1-12,5.41,14.68,14.68,0,0,1-5.71-1.3,19.46,19.46,0,0,1-5.63-3.64Zm0-12.16a17.26,17.26,0,0,0,5.44,3.46,13.63,13.63,0,0,0,4.66,1,10.36,10.36,0,0,0,8.39-4q3.26-4,3.26-11.14a24.85,24.85,0,0,0-.62-5.73A13,13,0,0,0,141,47.5a8.8,8.8,0,0,0-3.31-2.86,10.54,10.54,0,0,0-4.81-1A12.22,12.22,0,0,0,127.58,45a21.5,21.5,0,0,0-5.78,4.35Z"/><path d="M244.4,21.42h6.38V59.23l.23-.08,20.43-20h7.31L263.67,54.28l17.1,23h-7.15L259.71,58.44l-8.93,8.63v10.2H244.4Z"/><path d="M294.83,44.4H284.19V39.54l10.87-.4.86-10.66h5.28V39.14h18.49V44.4H301.2V62.52a19.28,19.28,0,0,0,.47,4.51,8.17,8.17,0,0,0,1.55,3.26,6.6,6.6,0,0,0,3,2,13.82,13.82,0,0,0,4.58.66,22.8,22.8,0,0,0,4.89-.47,27.9,27.9,0,0,0,4.2-1.25l1.32,4.7a38.08,38.08,0,0,1-5.59,1.61,29.31,29.31,0,0,1-6.22.67,18.32,18.32,0,0,1-6.91-1.14A10.76,10.76,0,0,1,298,73.85a12.72,12.72,0,0,1-2.41-5,26.17,26.17,0,0,1-.74-6.43Z"/><path d="M328.47,39.14h23.94V77.27H346V44.4H328.47Zm20-7.84A5.21,5.21,0,0,1,344.83,30a4.68,4.68,0,0,1-1.44-3.61,4.81,4.81,0,0,1,1.44-3.65,5.6,5.6,0,0,1,7.34,0,4.73,4.73,0,0,1,1.48,3.65A4.6,4.6,0,0,1,352.17,30,5.23,5.23,0,0,1,348.52,31.3Z"/><path d="M368.8,58.28a22.5,22.5,0,0,1,1.51-8.51,19,19,0,0,1,4.08-6.31,17,17,0,0,1,5.95-3.92,19.53,19.53,0,0,1,14.22,0,17.1,17.1,0,0,1,5.94,3.92,19,19,0,0,1,4.08,6.31,22.5,22.5,0,0,1,1.51,8.51,22.27,22.27,0,0,1-1.51,8.44A18.61,18.61,0,0,1,400.5,73a17.27,17.27,0,0,1-5.94,3.88,19.53,19.53,0,0,1-14.22,0A17.22,17.22,0,0,1,374.39,73a18.61,18.61,0,0,1-4.08-6.27A22.27,22.27,0,0,1,368.8,58.28Zm6.6,0a19.52,19.52,0,0,0,.86,6,13.5,13.5,0,0,0,2.45,4.58,11.12,11.12,0,0,0,3.8,3,12.12,12.12,0,0,0,9.87,0,11.06,11.06,0,0,0,3.81-3,13.85,13.85,0,0,0,2.45-4.58,19.52,19.52,0,0,0,.85-6,19.91,19.91,0,0,0-.85-6,14.16,14.16,0,0,0-2.45-4.66,10.8,10.8,0,0,0-3.81-3,12,12,0,0,0-9.87,0,10.86,10.86,0,0,0-3.8,3,13.8,13.8,0,0,0-2.45,4.66A19.9,19.9,0,0,0,375.4,58.28Z"/><path d="M414,39.14h5.28l.55,6.52h.31a30.19,30.19,0,0,1,6.37-5.34,14.6,14.6,0,0,1,7.85-2.12c4.5,0,7.81,1.3,9.9,3.89s3.15,6.42,3.15,11.49V77.27h-6.37V54.44q0-5.41-2-8c-1.35-1.75-3.57-2.63-6.68-2.63a11.21,11.21,0,0,0-3.15.43,12,12,0,0,0-2.84,1.3,20.51,20.51,0,0,0-2.87,2.16c-1,.86-2,1.87-3.11,3V77.27H414Z"/><path d="M455.74,67.38a10.23,10.23,0,0,1,1.52-5.6,12.1,12.1,0,0,1,4.82-4.12,33.68,33.68,0,0,1,8.51-2.83,105.69,105.69,0,0,1,12.5-1.72,13.7,13.7,0,0,0-.62-3.69,8,8,0,0,0-1.71-3,8.37,8.37,0,0,0-3.07-2.08,12.19,12.19,0,0,0-4.62-.78A18.1,18.1,0,0,0,465.92,45a43.79,43.79,0,0,0-6.06,3.1l-2.48-4.4A35.44,35.44,0,0,1,464.72,40a33.43,33.43,0,0,1,4.54-1.3,23.63,23.63,0,0,1,4.9-.51q7.77,0,11.54,4.28t3.77,11.41V77.27h-5.21l-.54-5.18h-.24a36.05,36.05,0,0,1-7,4.31,18.27,18.27,0,0,1-7.89,1.81,16.16,16.16,0,0,1-5-.75,12.75,12.75,0,0,1-4.08-2.12A9.94,9.94,0,0,1,456.75,72,10.07,10.07,0,0,1,455.74,67.38Zm6.22-.47a5.21,5.21,0,0,0,.7,2.79,6,6,0,0,0,1.83,1.88,8.07,8.07,0,0,0,2.64,1.1,14.12,14.12,0,0,0,3.14.35,15.08,15.08,0,0,0,6.41-1.45,28.8,28.8,0,0,0,6.41-4.2v-10A80.34,80.34,0,0,0,473,58.68a27.83,27.83,0,0,0-6.52,2.08A8.59,8.59,0,0,0,463,63.5,6.09,6.09,0,0,0,462,66.91Z"/><path d="M503.45,39.14h5.28l.55,9h.23a22.83,22.83,0,0,1,7.27-7.3,17.84,17.84,0,0,1,9.59-2.67,19.16,19.16,0,0,1,3.85.36,14.93,14.93,0,0,1,3.53,1.21l-1.32,5.57a31.22,31.22,0,0,0-3.42-1,17.2,17.2,0,0,0-3.65-.31,15.09,15.09,0,0,0-8.19,2.47q-3.93,2.48-7.35,8.43V77.27h-6.37Z"/><path d="M543,88.17a10.55,10.55,0,0,0,1.75.16A9.11,9.11,0,0,0,551.16,86,15.82,15.82,0,0,0,555,80.17l1.17-2.82L538.57,39.14H545l9.25,21.11q1.08,2.51,2.29,5.41c.8,1.93,1.59,3.82,2.37,5.65h.31l2.06-5.61q1.05-2.87,2-5.45l8.23-21.11h6.07L561,80.4a38.14,38.14,0,0,1-2.49,5.26,17.37,17.37,0,0,1-3.34,4.2,15,15,0,0,1-4.47,2.78,15.13,15.13,0,0,1-5.71,1,14.69,14.69,0,0,1-5-.78l1.32-5.1C541.81,87.93,542.36,88.06,543,88.17Z"/><path d="M156.22,51.28a20.82,20.82,0,0,1,1.63-8.43,19.51,19.51,0,0,1,4.31-6.31,18.51,18.51,0,0,1,6.14-4,19.82,19.82,0,0,1,14.33-.08,15,15,0,0,1,5.4,3.65,15.62,15.62,0,0,1,3.38,5.64,21.71,21.71,0,0,1,1.17,7.3,23,23,0,0,1-.23,3.53H162.82a13.93,13.93,0,0,0,4.31,9.8A14.39,14.39,0,0,0,177.27,66a18.72,18.72,0,0,0,6.1-.94,26.16,26.16,0,0,0,5.4-2.59L191,66.74a32.66,32.66,0,0,1-6.38,3.13,23.18,23.18,0,0,1-8.15,1.34,22.56,22.56,0,0,1-7.89-1.37,19.42,19.42,0,0,1-6.45-3.93,18.1,18.1,0,0,1-4.35-6.23A21,21,0,0,1,156.22,51.28Zm30.45-2.9q0-5.88-2.95-9c-2-2.06-4.71-3.1-8.23-3.1a12.5,12.5,0,0,0-8.32,3.18,13.63,13.63,0,0,0-2.91,3.76,13.79,13.79,0,0,0-1.52,5.14Z"/><path d="M198.87,50.28a21,21,0,0,1,1.63-8.43,19.54,19.54,0,0,1,4.32-6.31,18.41,18.41,0,0,1,6.14-4,19.82,19.82,0,0,1,14.33-.08,15.13,15.13,0,0,1,5.4,3.65,15.76,15.76,0,0,1,3.38,5.64,21.71,21.71,0,0,1,1.17,7.3,21.62,21.62,0,0,1-.24,3.53H205.48a13.88,13.88,0,0,0,4.31,9.8A14.35,14.35,0,0,0,219.93,65a18.72,18.72,0,0,0,6.1-.94,26.16,26.16,0,0,0,5.4-2.59l2.25,4.24a32.57,32.57,0,0,1-6.37,3.13,23.19,23.19,0,0,1-8.16,1.34,22.55,22.55,0,0,1-7.88-1.37,19.32,19.32,0,0,1-6.45-3.93,18.1,18.1,0,0,1-4.35-6.23A20.87,20.87,0,0,1,198.87,50.28Zm30.46-2.9q0-5.88-3-9c-2-2.06-4.72-3.1-8.24-3.1a12.44,12.44,0,0,0-8.31,3.18,13.59,13.59,0,0,0-4.43,8.9Z"/><path d="M180.07,47.47a4.3,4.3,0,0,1-3-1.1,3.84,3.84,0,0,1-1.18-3,3.94,3.94,0,0,1,1.18-3,4.6,4.6,0,0,1,6,0,3.9,3.9,0,0,1,1.22,3,3.8,3.8,0,0,1-1.22,3A4.32,4.32,0,0,1,180.07,47.47Z"/><path d="M223.07,46.47a4.3,4.3,0,0,1-3-1.1,3.84,3.84,0,0,1-1.18-3,3.94,3.94,0,0,1,1.18-3,4.6,4.6,0,0,1,6,0,3.9,3.9,0,0,1,1.22,3,3.8,3.8,0,0,1-1.22,3A4.32,4.32,0,0,1,223.07,46.47Z"/><path class="cls-1" d="M163.22,79.33c5.27,3.76,35.63,20.69,64.9.56"/></svg>