<svg width="682" height="125" viewBox="0 0 682 125" fill="none" xmlns="http://www.w3.org/2000/svg">
<path d="M119.867 87.4782V101.467H113.588V42.5435H118.794L119.325 47.8369H119.562C121.332 45.9911 123.354 44.4651 125.555 43.3152C127.699 42.1499 130.054 41.5367 132.444 41.5217C134.722 41.4702 136.982 41.9828 139.057 43.0217C140.948 43.9983 142.602 45.459 143.879 47.2826C145.241 49.2698 146.244 51.5284 146.832 53.9348C147.516 56.7704 147.848 59.6959 147.816 62.6304C147.862 65.8333 147.396 69.02 146.438 72.0435C145.61 74.6465 144.341 77.0516 142.698 79.1304C141.226 80.9878 139.41 82.4741 137.372 83.4887C135.335 84.5032 133.124 85.0224 130.889 85.0108C128.949 84.9614 127.038 84.4809 125.269 83.5978C123.229 82.6429 121.355 81.3042 119.729 79.6413L119.867 87.4782ZM119.867 74.2608C121.421 75.8747 123.238 77.1506 125.22 78.0217C126.679 78.6787 128.232 79.0467 129.806 79.1087C131.394 79.1443 132.967 78.7697 134.401 78.0149C135.834 77.26 137.089 76.1457 138.063 74.7608C140.202 71.8623 141.271 67.8261 141.271 62.6521C141.287 60.557 141.083 58.4668 140.661 56.4239C140.304 54.7094 139.66 53.0837 138.762 51.6304C137.93 50.3079 136.81 49.2386 135.504 48.5217C134.026 47.7526 132.404 47.3802 130.771 47.4348C128.953 47.4857 127.17 47.9912 125.555 48.913C123.431 50.123 121.507 51.7217 119.867 53.6413V74.2608Z" fill="black"/>
<path d="M240.521 23.2826H246.799V64.3804L247.026 64.2935L267.131 42.5543H274.325L259.485 59L276.313 84H269.277L255.588 63.5217L246.799 72.9022V83.9891H240.521V23.2826Z" fill="black"/>
<path d="M290.15 48.2609H279.679V42.9783L290.377 42.5435L291.223 30.9565H296.419V42.5435H314.616V48.2609H296.419V67.9565C296.398 69.605 296.553 71.2504 296.882 72.8587C297.145 74.1507 297.666 75.3614 298.407 76.4022C299.189 77.4154 300.212 78.1682 301.359 78.5761C302.815 79.0933 304.338 79.3358 305.867 79.2935C307.483 79.3151 309.096 79.1439 310.679 78.7826C312.087 78.4501 313.469 77.9958 314.812 77.4239L316.111 82.5326C314.321 83.27 312.482 83.8551 310.61 84.2826C308.599 84.7659 306.547 85.01 304.489 85.0109C302.171 85.0847 299.862 84.664 297.689 83.7718C295.965 83.0498 294.442 81.8433 293.27 80.2718C292.127 78.6751 291.317 76.8193 290.898 74.837C290.394 72.5495 290.15 70.2019 290.17 67.8478L290.15 48.2609Z" fill="black"/>
<path d="M323.256 42.5435H346.816V83.9891H340.508V48.2609H323.256V42.5435ZM342.939 34.0217C341.625 34.0754 340.342 33.5696 339.357 32.6087C338.88 32.105 338.506 31.4939 338.262 30.8169C338.017 30.1399 337.907 29.4128 337.939 28.6848C337.91 27.9506 338.021 27.2178 338.265 26.5342C338.509 25.8506 338.881 25.2315 339.357 24.7174C340.359 23.7569 341.641 23.228 342.968 23.228C344.295 23.228 345.578 23.7569 346.58 24.7174C347.067 25.2243 347.449 25.841 347.7 26.5257C347.951 27.2103 348.066 27.9467 348.037 28.6848C348.069 29.4168 347.955 30.1477 347.704 30.8257C347.452 31.5038 347.068 32.1125 346.58 32.6087C345.591 33.5703 344.305 34.076 342.988 34.0217H342.939Z" fill="black"/>
<path d="M362.946 63.3478C362.896 60.1874 363.4 57.0461 364.432 54.0978C365.344 51.5391 366.709 49.2073 368.447 47.2391C370.105 45.3779 372.1 43.9257 374.303 42.9782C378.802 41.0359 383.798 41.0359 388.297 42.9782C390.495 43.93 392.486 45.3817 394.143 47.2391C395.881 49.2073 397.246 51.5391 398.158 54.0978C399.19 57.0461 399.695 60.1874 399.644 63.3478C399.692 66.4832 399.187 69.5989 398.158 72.5217C397.252 75.0741 395.886 77.3964 394.143 79.3478C392.48 81.1853 390.489 82.6214 388.297 83.5652C383.798 85.5075 378.802 85.5075 374.303 83.5652C372.107 82.6241 370.113 81.1878 368.447 79.3478C366.705 77.3996 365.339 75.0811 364.432 72.5326C363.402 69.6064 362.897 66.4868 362.946 63.3478ZM369.441 63.3478C369.414 65.5571 369.7 67.7575 370.288 69.8695C370.792 71.6857 371.611 73.3764 372.699 74.8478C373.713 76.2249 374.99 77.3383 376.438 78.1087C377.967 78.8613 379.622 79.2502 381.295 79.2502C382.969 79.2502 384.623 78.8613 386.152 78.1087C387.605 77.3414 388.885 76.2277 389.901 74.8478C390.982 73.3712 391.8 71.682 392.312 69.8695C392.897 67.757 393.179 65.5565 393.149 63.3478C393.173 61.1395 392.891 58.9401 392.312 56.826C391.803 54.986 390.985 53.2679 389.901 51.7608C388.891 50.374 387.609 49.2589 386.152 48.5C384.625 47.7393 382.97 47.3459 381.295 47.3459C379.62 47.3459 377.965 47.7393 376.438 48.5C374.986 49.2623 373.707 50.3769 372.699 51.7608C371.608 53.2627 370.79 54.9824 370.288 56.826C369.706 58.9395 369.42 61.1389 369.441 63.3478Z" fill="black"/>
<path d="M407.429 42.5435H412.625L413.166 49.6304H413.471C415.308 47.3857 417.418 45.4324 419.74 43.8261C422.066 42.2655 424.745 41.4664 427.465 41.5217C431.894 41.5217 435.151 42.9348 437.208 45.75C439.265 48.5652 440.308 52.7283 440.308 58.2391V83.9891H434.039V59.1739C434.039 55.2536 433.383 52.3551 432.071 50.4783C430.743 48.5761 428.558 47.6196 425.497 47.6196C424.449 47.6119 423.405 47.7693 422.397 48.087C421.414 48.4215 420.474 48.8965 419.602 49.5C418.6 50.1899 417.655 50.9755 416.778 51.8478C415.794 52.7826 414.81 53.8804 413.717 55.1087V83.9891H407.429V42.5435Z" fill="black"/>
<path d="M448.506 73.2391C448.462 71.0932 448.982 68.9792 450.002 67.1522C451.194 65.2202 452.832 63.6744 454.745 62.6739C457.4 61.2408 460.217 60.2063 463.12 59.5978C467.183 58.7046 471.291 58.0803 475.422 57.7283C475.385 56.3668 475.18 55.0172 474.812 53.7174C474.472 52.5081 473.898 51.3952 473.129 50.4565C472.287 49.4629 471.255 48.6903 470.108 48.1957C468.656 47.591 467.112 47.3031 465.561 47.3478C463.144 47.3368 460.749 47.8694 458.524 48.913C456.46 49.8636 454.466 50.9902 452.561 52.2826L450.12 47.5C452.378 45.8545 454.803 44.5049 457.343 43.4783C458.801 42.8915 460.294 42.4193 461.811 42.0652C463.397 41.6954 465.013 41.5096 466.634 41.5109C471.731 41.5109 475.517 43.0616 477.99 46.163C480.464 49.2645 481.701 53.3986 481.701 58.5652V83.9891H476.573L476.042 78.3587H475.806C473.679 80.2053 471.367 81.7771 468.917 83.0435C466.494 84.3323 463.841 85.0046 461.152 85.0109C459.483 85.026 457.823 84.7509 456.231 84.1957C454.778 83.7026 453.417 82.9218 452.216 81.8913C451.08 80.9165 450.153 79.6769 449.5 78.2609C448.812 76.6978 448.472 74.9765 448.506 73.2391ZM454.627 72.7283C454.595 73.7905 454.833 74.8414 455.316 75.7609C455.773 76.5804 456.388 77.2783 457.117 77.8044C457.912 78.3706 458.792 78.7755 459.715 79C460.729 79.2541 461.766 79.3817 462.805 79.3804C464.987 79.3737 467.141 78.8356 469.114 77.8044C471.391 76.5998 473.513 75.0644 475.422 73.2391V62.3696C472.088 62.6084 468.772 63.0804 465.492 63.7826C463.277 64.2418 461.122 65.0012 459.076 66.0435C457.718 66.6885 456.537 67.7154 455.651 69.0217C454.996 70.1217 454.654 71.4122 454.667 72.7283H454.627Z" fill="black"/>
<path d="M495.459 42.5435H500.655L501.196 52.3261H501.423C503.229 49.1136 505.676 46.3996 508.577 44.3913C511.41 42.4545 514.683 41.4479 518.015 41.4891C519.287 41.4781 520.556 41.6092 521.804 41.8804C523.007 42.1567 524.174 42.5985 525.278 43.1957L523.979 49.25C522.876 48.8172 521.753 48.4543 520.613 48.1631C519.43 47.9098 518.226 47.7969 517.021 47.8261C514.156 47.8436 511.357 48.776 508.961 50.5109C506.383 52.308 503.971 55.3623 501.728 59.6739V83.9891H495.459V42.5435Z" fill="black"/>
<path d="M534.381 95.8369C534.95 95.9477 535.526 96.0059 536.103 96.0108C538.423 96.1007 540.685 95.1928 542.411 93.4782C544.083 91.7031 545.374 89.538 546.19 87.1413L547.342 84.0761L530.021 42.5435H536.349L545.452 65.4891C546.161 67.3079 546.912 69.2681 547.706 71.3695C548.493 73.4674 549.271 75.5217 550.038 77.5108H550.343L552.371 71.413C553.06 69.3333 553.716 67.3587 554.339 65.4891L562.438 42.5435H568.412L552.095 87.3913C551.411 89.3632 550.592 91.2746 549.645 93.1087C548.77 94.8093 547.661 96.3494 546.358 97.6739C545.064 98.9597 543.575 99.9827 541.959 100.696C540.167 101.455 538.258 101.824 536.339 101.783C534.667 101.816 533.002 101.53 531.419 100.935L532.718 95.3913C533.21 95.5761 533.751 95.7174 534.381 95.8369Z" fill="black"/>
<path d="M153.74 55.7391C153.693 52.5949 154.239 49.4742 155.344 46.5761C156.335 44.0034 157.777 41.6725 159.586 39.7174C161.318 37.8379 163.372 36.3596 165.629 35.3696C170.155 33.399 175.185 33.3679 179.731 35.2826C181.744 36.1589 183.559 37.5133 185.045 39.25C186.535 41.0097 187.669 43.0994 188.372 45.3805C189.163 47.9332 189.553 50.617 189.523 53.3152C189.537 54.5987 189.461 55.8815 189.297 57.1522H160.235C160.272 59.149 160.665 61.1181 161.393 62.9463C162.121 64.7745 163.169 66.4255 164.477 67.8044C167.217 70.4928 170.794 71.9032 174.456 71.7391C176.495 71.7678 178.523 71.4225 180.459 70.7174C182.322 70.0068 184.106 69.0622 185.774 67.9022L187.968 72.5435C185.994 73.9264 183.888 75.0672 181.689 75.9457C179.116 76.9576 176.4 77.4509 173.669 77.4022C171.021 77.4212 168.391 76.9169 165.904 75.9131C163.555 74.9617 161.399 73.5103 159.556 71.6413C157.712 69.744 156.253 67.4359 155.275 64.8696C154.203 61.9744 153.68 58.8667 153.74 55.7391ZM183.707 52.587C183.707 48.3261 182.739 45.0652 180.804 42.8044C178.835 40.5652 176.169 39.4348 172.704 39.4348C169.683 39.4374 166.769 40.6678 164.516 42.8913C163.352 44.0578 162.383 45.4412 161.653 46.9783C160.828 48.7146 160.32 50.6128 160.157 52.5652L183.707 52.587Z" fill="black"/>
<path d="M195.713 54.6521C195.671 51.5083 196.217 48.3888 197.317 45.4891C198.312 42.9159 199.757 40.585 201.569 38.6304C203.299 36.7485 205.354 35.27 207.611 34.2825C212.138 32.3119 217.168 32.2809 221.714 34.1956C223.725 35.0759 225.539 36.4298 227.028 38.163C228.515 39.9254 229.648 42.0144 230.355 44.2934C231.146 46.8462 231.536 49.53 231.506 52.2282C231.522 53.5122 231.443 54.7954 231.27 56.0652H202.218C202.252 58.0624 202.644 60.0325 203.372 61.8611C204.1 63.6897 205.15 65.3404 206.46 66.7173C209.198 69.4097 212.776 70.8207 216.439 70.6521C218.477 70.6807 220.506 70.3355 222.442 69.6304C224.305 68.9198 226.088 67.9752 227.756 66.8152L229.971 71.4238C228 72.8067 225.897 73.9476 223.702 74.826C221.126 75.839 218.406 76.3323 215.671 76.2825C213.027 76.3005 210.4 75.7962 207.917 74.7934C205.567 73.8446 203.41 72.393 201.569 70.5217C199.724 68.6244 198.265 66.3163 197.288 63.7499C196.202 60.8692 195.666 57.7721 195.713 54.6521ZM225.69 51.4999C225.69 47.2391 224.706 43.9782 222.737 41.7173C220.769 39.4782 218.092 38.3478 214.628 38.3478C211.61 38.347 208.697 39.5779 206.45 41.8043C203.943 44.305 202.385 47.7611 202.09 51.4782L225.69 51.4999Z" fill="black"/>
<path d="M177.212 51.5978C176.125 51.6329 175.068 51.2048 174.259 50.4022C173.863 49.9841 173.554 49.4759 173.354 48.9128C173.153 48.3498 173.066 47.7453 173.098 47.1413C173.073 46.5381 173.163 45.9357 173.363 45.3737C173.563 44.8117 173.869 44.3028 174.259 43.8804C175.081 43.1 176.128 42.6708 177.212 42.6708C178.295 42.6708 179.343 43.1 180.164 43.8804C180.564 44.2972 180.878 44.8041 181.085 45.3667C181.293 45.9293 181.388 46.5345 181.365 47.1413C181.395 47.749 181.302 48.3564 181.095 48.9201C180.887 49.4838 180.569 49.9899 180.164 50.4022C179.355 51.2028 178.298 51.6307 177.212 51.5978Z" fill="black"/>
<path d="M219.529 50.5109C218.443 50.546 217.385 50.1179 216.577 49.3153C216.181 48.8972 215.872 48.389 215.671 47.8259C215.471 47.2629 215.384 46.6584 215.416 46.0544C215.39 45.4511 215.48 44.8488 215.68 44.2868C215.881 43.7248 216.186 43.2159 216.577 42.7935C217.398 42.0131 218.446 41.5839 219.529 41.5839C220.613 41.5839 221.66 42.0131 222.482 42.7935C222.882 43.2103 223.196 43.7172 223.403 44.2798C223.61 44.8424 223.705 45.4476 223.682 46.0544C223.712 46.662 223.62 47.2694 223.412 47.8332C223.205 48.3969 222.887 48.903 222.482 49.3153C221.672 50.1159 220.616 50.5438 219.529 50.5109Z" fill="black"/>
<path d="M160.629 86.2283C165.815 90.3152 195.694 108.717 224.499 86.837" stroke="black" stroke-width="5" stroke-miterlimit="10" stroke-linecap="square"/>
</svg>
